# xmcd
#
# Track frame offsets:
#	150
#	18849
#	37005
#	55956
#	78359
#	99366
#	118651
#	135905
#	153226
#	168562
#	184568
#	206843
#
# Disc length: 3145 seconds
#
# Revision: 0
# Processed by: cddbd v1.5.2PL0 Copyright (c) Steve Scherf et al.
# Submitted via: EasyCDDAExtractor 10.5.1.1
#
DISCID=930c470c
DTITLE=Vera Kaa - Quietly Blue
DYEAR=2007
DGENRE=Blues
TTITLE0=miss your water (otis redding)
TTITLE1=when something is wrong with my baby (isaac hayes and david porter)
TTITLE2=lady sings the blues (blillie holiday and herbie nichols)
TTITLE3=too little too late (dennis walker and alan mirikitani)
TTITLE4=world on your shoulders (paul mills)
TTITLE5=guilty (randy newman)
TTITLE6=stets in truure (taditionell)
TTITLE7=cigarettes and coffee (otis redding)
TTITLE8=better off with the blues (ronnie milsap)
TTITLE9=you're gonna make me cry (o.v. wright)
TTITLE10=wo immer du au bisch (bonnie raitt)
TTITLE11=so lonesome i could cry (hank williams)
EXTD=
EXTT0=
EXTT1=
EXTT2=
EXTT3=
EXTT4=
EXTT5=
EXTT6=
EXTT7=
EXTT8=
EXTT9=
EXTT10=
EXTT11=
PLAYORDER=
